<svg width="129" height="43" viewBox="0 0 129 43" fill="none" xmlns="http://www.w3.org/2000/svg">
<path d="M9 36.132C7.176 36.132 5.676 35.7 4.5 34.836C3.348 33.972 2.496 32.856 1.944 31.488C1.416 30.12 1.152 28.704 1.152 27.24C1.152 25.344 1.44 23.448 2.016 21.552C2.592 19.632 3.384 17.808 4.392 16.08C5.424 14.352 6.588 12.816 7.884 11.472C9.18 10.128 10.56 9.072 12.024 8.304C13.512 7.512 14.988 7.116 16.452 7.116C17.508 7.116 18.396 7.368 19.116 7.872C19.836 8.352 20.196 9.192 20.196 10.392C20.196 11.112 20.064 11.916 19.8 12.804C19.56 13.692 19.224 14.556 18.792 15.396C18.384 16.212 17.916 16.884 17.388 17.412C16.86 17.94 16.32 18.204 15.768 18.204C15.528 18.204 15.276 18.12 15.012 17.952C14.748 17.784 14.508 17.496 14.292 17.088C14.652 16.68 15.06 16.188 15.516 15.612C15.972 15.012 16.404 14.388 16.812 13.74C17.22 13.068 17.556 12.42 17.82 11.796C18.084 11.148 18.216 10.584 18.216 10.104C18.216 9.672 18.096 9.336 17.856 9.096C17.616 8.832 17.196 8.7 16.596 8.7C15.54 8.7 14.448 9.096 13.32 9.888C12.216 10.68 11.148 11.748 10.116 13.092C9.084 14.412 8.148 15.9 7.308 17.556C6.492 19.188 5.844 20.88 5.364 22.632C4.884 24.36 4.644 26.004 4.644 27.564C4.644 28.716 4.812 29.82 5.148 30.876C5.508 31.908 6.072 32.748 6.84 33.396C7.608 34.068 8.616 34.404 9.864 34.404C11.16 34.404 12.444 34.044 13.716 33.324C15.012 32.604 16.188 31.656 17.244 30.48C18.324 29.304 19.188 28.044 19.836 26.7L20.772 27.312C19.932 28.92 18.924 30.396 17.748 31.74C16.572 33.06 15.24 34.116 13.752 34.908C12.288 35.724 10.704 36.132 9 36.132ZM20.6404 34.368C20.1124 34.368 19.7284 33.96 19.4884 33.144C19.2724 32.328 19.1644 31.38 19.1644 30.3C19.1644 29.196 19.3444 27.864 19.7044 26.304C20.0884 24.744 20.5924 23.1 21.2164 21.372C21.8644 19.644 22.5724 17.952 23.3404 16.296C24.1324 14.64 24.9364 13.14 25.7524 11.796C26.5924 10.428 27.3844 9.336 28.1284 8.52C28.8964 7.704 29.5684 7.296 30.1444 7.296C30.6484 7.296 31.0324 7.572 31.2964 8.124C31.5604 8.676 31.6924 9.252 31.6924 9.852C31.6924 10.5 31.5364 11.304 31.2244 12.264C30.9364 13.2 30.5284 14.208 30.0004 15.288C29.4724 16.368 28.8484 17.436 28.1284 18.492C27.4324 19.524 26.6644 20.472 25.8244 21.336C25.0084 22.2 24.1564 22.896 23.2684 23.424C22.8124 24.672 22.4884 25.788 22.2964 26.772C22.1284 27.732 22.0444 28.656 22.0444 29.544C22.0444 29.664 22.0444 29.796 22.0444 29.94C22.0684 30.06 22.0804 30.18 22.0804 30.3C22.1764 30.156 22.3324 29.784 22.5484 29.184C22.7644 28.584 23.0524 27.888 23.4124 27.096C23.7964 26.28 24.2644 25.488 24.8164 24.72C25.3684 23.928 26.0164 23.28 26.7604 22.776C27.5044 22.248 28.3564 21.984 29.3164 21.984C30.1324 21.984 30.7684 22.176 31.2244 22.56C31.6804 22.92 32.0044 23.376 32.1964 23.928C32.3884 24.456 32.4844 24.996 32.4844 25.548C32.4844 26.316 32.3524 27.036 32.0884 27.708C31.8484 28.38 31.5964 29.016 31.3324 29.616C31.0924 30.192 30.9724 30.744 30.9724 31.272C30.9724 31.704 31.0684 32.004 31.2604 32.172C31.4524 32.34 31.6804 32.424 31.9444 32.424C32.4724 32.424 33.0844 32.16 33.7804 31.632C34.5004 31.104 35.2084 30.408 35.9044 29.544C36.6244 28.656 37.2364 27.684 37.7404 26.628L38.3164 27.24C37.7644 28.44 37.1164 29.544 36.3724 30.552C35.6284 31.56 34.8124 32.364 33.9244 32.964C33.0364 33.564 32.0764 33.864 31.0444 33.864C30.1324 33.864 29.4364 33.624 28.9564 33.144C28.4764 32.664 28.2364 32.064 28.2364 31.344C28.2364 30.84 28.3204 30.288 28.4884 29.688C28.6804 29.064 28.8604 28.44 29.0284 27.816C29.1964 27.192 29.2804 26.628 29.2804 26.124C29.2804 25.548 29.1484 25.152 28.8844 24.936C28.6444 24.72 28.3444 24.612 27.9844 24.612C27.3844 24.612 26.8444 24.852 26.3644 25.332C25.8844 25.788 25.4524 26.388 25.0684 27.132C24.6844 27.876 24.3244 28.668 23.9884 29.508C23.6524 30.324 23.3164 31.104 22.9804 31.848C22.6444 32.592 22.2844 33.192 21.9004 33.648C21.5404 34.128 21.1204 34.368 20.6404 34.368ZM24.0244 21.12C24.7924 20.424 25.5244 19.584 26.2204 18.6C26.9404 17.592 27.5764 16.572 28.1284 15.54C28.6804 14.508 29.1124 13.572 29.4244 12.732C29.7604 11.868 29.9404 11.22 29.9644 10.788V10.68C29.8204 10.68 29.5084 10.98 29.0284 11.58C28.5724 12.156 28.0324 12.948 27.4084 13.956C26.8084 14.94 26.1964 16.056 25.5724 17.304C24.9724 18.552 24.4564 19.824 24.0244 21.12ZM40.9494 34.584C39.4134 34.584 38.2254 34.164 37.3854 33.324C36.5694 32.508 36.1614 31.476 36.1614 30.228C36.1614 29.172 36.4254 28.056 36.9534 26.88C37.5054 25.68 38.2374 24.564 39.1494 23.532C40.0614 22.476 41.0694 21.624 42.1734 20.976C43.2774 20.328 44.3814 20.004 45.4854 20.004C46.1094 20.004 46.6974 20.172 47.2494 20.508C47.8254 20.82 48.1134 21.456 48.1134 22.416C48.1134 23.328 47.8494 24.18 47.3214 24.972C46.7934 25.764 46.0854 26.472 45.1974 27.096C44.3094 27.72 43.3254 28.236 42.2454 28.644C41.1894 29.028 40.1214 29.28 39.0414 29.4C39.0174 29.496 38.9934 29.604 38.9694 29.724C38.9694 29.82 38.9694 29.988 38.9694 30.228C38.9694 30.348 38.9814 30.564 39.0054 30.876C39.0534 31.164 39.1614 31.476 39.3294 31.812C39.4974 32.148 39.7734 32.436 40.1574 32.676C40.5414 32.916 41.0694 33.036 41.7414 33.036C42.7494 33.036 43.7574 32.76 44.7654 32.208C45.7974 31.632 46.7574 30.876 47.6454 29.94C48.5574 29.004 49.3134 27.96 49.9134 26.808L50.6334 27.384C49.9854 28.824 49.1454 30.084 48.1134 31.164C47.1054 32.244 45.9774 33.084 44.7294 33.684C43.5054 34.284 42.2454 34.584 40.9494 34.584ZM39.4374 28.068C40.0614 27.996 40.7574 27.78 41.5254 27.42C42.2934 27.06 43.0254 26.604 43.7214 26.052C44.4414 25.5 45.0294 24.9 45.4854 24.252C45.9414 23.58 46.1694 22.908 46.1694 22.236C46.1694 21.972 46.1214 21.792 46.0254 21.696C45.9294 21.6 45.7734 21.552 45.5574 21.552C45.0054 21.552 44.4294 21.756 43.8294 22.164C43.2294 22.548 42.6414 23.064 42.0654 23.712C41.4894 24.336 40.9734 25.032 40.5174 25.8C40.0614 26.568 39.7014 27.324 39.4374 28.068ZM55.703 33.936C54.815 33.936 54.095 33.696 53.543 33.216C52.991 32.76 52.715 32.136 52.715 31.344C52.715 30.672 52.883 29.952 53.219 29.184C53.555 28.416 53.891 27.66 54.227 26.916C54.587 26.172 54.767 25.512 54.767 24.936C54.767 24.384 54.587 23.928 54.227 23.568C53.867 23.184 53.447 22.872 52.967 22.632C52.439 23.952 51.839 25.236 51.167 26.484C50.519 27.708 49.991 28.668 49.583 29.364L49.043 28.32C49.379 27.696 49.823 26.808 50.375 25.656C50.927 24.504 51.455 23.22 51.959 21.804C51.719 21.564 51.599 21.24 51.599 20.832C51.599 20.208 51.791 19.62 52.175 19.068C52.559 18.516 52.931 18.24 53.291 18.24C53.579 18.24 53.783 18.408 53.903 18.744C54.047 19.056 54.119 19.272 54.119 19.392C54.119 19.512 54.059 19.728 53.939 20.04C53.843 20.352 53.771 20.58 53.723 20.724C53.747 20.988 53.951 21.252 54.335 21.516C54.743 21.756 55.199 22.044 55.703 22.38C56.207 22.716 56.651 23.136 57.035 23.64C57.419 24.144 57.611 24.78 57.611 25.548C57.611 26.244 57.455 26.952 57.143 27.672C56.831 28.392 56.519 29.064 56.207 29.688C55.895 30.312 55.739 30.852 55.739 31.308C55.739 31.644 55.823 31.872 55.991 31.992C56.183 32.088 56.399 32.136 56.639 32.136C57.215 32.136 57.815 31.968 58.439 31.632C59.063 31.272 59.675 30.816 60.275 30.264C60.875 29.712 61.403 29.136 61.859 28.536C62.315 27.912 62.663 27.348 62.903 26.844L63.767 27.492C63.311 28.524 62.651 29.544 61.787 30.552C60.923 31.536 59.963 32.352 58.907 33C57.851 33.624 56.783 33.936 55.703 33.936Z" fill="#C24624"/>
<path d="M64.1371 36.132C64.4971 34.932 64.9051 33.624 65.3611 32.208C65.8171 30.768 66.3451 29.088 66.9451 27.168C67.5451 25.224 68.2411 22.92 69.0331 20.256C69.8251 17.592 70.7371 14.448 71.7691 10.824C71.7931 10.752 71.8411 10.572 71.9131 10.284C71.9851 9.996 72.0211 9.708 72.0211 9.42C72.0211 9.228 71.9851 9.096 71.9131 9.024C71.8651 8.952 71.7451 8.916 71.5531 8.916C71.0491 8.916 70.5571 9.12 70.0771 9.528C69.6211 9.936 69.2011 10.452 68.8171 11.076C68.4571 11.676 68.1691 12.312 67.9531 12.984C67.7611 13.632 67.6651 14.22 67.6651 14.748C67.6651 15.324 67.7851 15.888 68.0251 16.44C66.9691 16.44 66.2251 16.224 65.7931 15.792C65.3611 15.336 65.1451 14.772 65.1451 14.1C65.1451 13.284 65.3971 12.468 65.9011 11.652C66.4051 10.812 67.0411 10.056 67.8091 9.384C68.6011 8.688 69.4171 8.136 70.2571 7.728C71.1211 7.296 71.9011 7.08 72.5971 7.08C73.4371 7.08 74.1211 7.392 74.6491 8.016C75.2011 8.616 75.6451 9.444 75.9811 10.5C76.3411 11.556 76.6411 12.756 76.8811 14.1C77.1211 15.444 77.3491 16.86 77.5651 18.348C77.8531 20.268 78.0811 21.804 78.2491 22.956C78.4171 24.084 78.5491 24.984 78.6451 25.656C78.7651 26.328 78.8611 26.892 78.9331 27.348C79.0291 27.804 79.1251 28.32 79.2211 28.896C79.5571 27.504 79.9051 26.028 80.2651 24.468C80.6491 22.908 81.0211 21.336 81.3811 19.752C81.7651 18.168 82.1371 16.668 82.4971 15.252C82.8571 13.836 83.2171 12.588 83.5771 11.508C83.9611 10.404 84.3211 9.552 84.6571 8.952C84.8731 8.568 85.2091 8.16 85.6651 7.728C86.1451 7.272 86.7811 7.044 87.5731 7.044C87.1651 8.124 86.6971 9.468 86.1691 11.076C85.6651 12.66 85.1491 14.388 84.6211 16.26C84.0931 18.108 83.5771 20.004 83.0731 21.948C82.5931 23.868 82.1611 25.74 81.7771 27.564C81.3931 29.364 81.0811 31.008 80.8411 32.496C80.6251 33.984 80.5171 35.196 80.5171 36.132C79.6291 36.132 78.8971 35.916 78.3211 35.484C77.7691 35.076 77.3491 34.26 77.0611 33.036C76.9651 32.628 76.8211 31.944 76.6291 30.984C76.4371 30.024 76.2211 28.896 75.9811 27.6C75.7411 26.28 75.4891 24.9 75.2251 23.46C74.9611 22.02 74.7091 20.616 74.4691 19.248C74.2291 17.856 74.0131 16.62 73.8211 15.54C73.6291 14.436 73.4731 13.596 73.3531 13.02C72.2731 16.956 71.3491 20.292 70.5811 23.028C69.8131 25.74 69.1411 27.96 68.5651 29.688C67.9891 31.392 67.4731 32.712 67.0171 33.648C66.5611 34.584 66.1051 35.232 65.6491 35.592C65.1931 35.952 64.6891 36.132 64.1371 36.132ZM92.6983 17.844C92.2423 17.844 91.8223 17.736 91.4383 17.52C91.0783 17.28 90.8983 16.92 90.8983 16.44C90.8983 15.864 91.2103 15.372 91.8343 14.964C92.4583 14.556 93.1063 14.352 93.7783 14.352C94.2103 14.352 94.5703 14.448 94.8583 14.64C95.1703 14.832 95.3263 15.18 95.3263 15.684C95.3263 16.188 95.0503 16.68 94.4983 17.16C93.9463 17.616 93.3463 17.844 92.6983 17.844ZM88.4503 34.08C87.3943 34.08 86.6023 33.768 86.0743 33.144C85.5463 32.52 85.2823 31.764 85.2823 30.876C85.2823 30.324 85.3783 29.628 85.5703 28.788C85.7623 27.948 86.0263 27.072 86.3623 26.16C86.7223 25.224 87.1303 24.348 87.5863 23.532C88.0423 22.716 88.5343 22.056 89.0623 21.552C89.5903 21.024 90.1183 20.76 90.6463 20.76C90.9343 20.76 91.1863 20.856 91.4023 21.048C91.6183 21.216 91.7263 21.468 91.7263 21.804C91.7263 22.116 91.5343 22.584 91.1503 23.208C90.7903 23.832 90.3583 24.552 89.8543 25.368C89.3743 26.184 88.9423 27.036 88.5583 27.924C88.1983 28.788 88.0183 29.616 88.0183 30.408C88.0183 31.176 88.1503 31.692 88.4143 31.956C88.7023 32.196 89.1103 32.316 89.6383 32.316C90.4543 32.316 91.3423 31.908 92.3023 31.092C93.2623 30.276 94.2583 28.848 95.2903 26.808L95.8303 27.384C94.9903 29.496 93.9223 31.14 92.6263 32.316C91.3303 33.492 89.9383 34.08 88.4503 34.08ZM105.771 34.368C105.027 34.368 104.379 34.128 103.827 33.648C103.275 33.168 102.831 32.568 102.495 31.848C102.159 31.128 101.907 30.396 101.739 29.652C101.571 28.884 101.487 28.224 101.487 27.672C101.823 27.6 102.243 27.492 102.747 27.348C103.251 27.204 103.767 27.012 104.295 26.772C104.823 26.508 105.255 26.196 105.591 25.836C105.951 25.452 106.131 24.996 106.131 24.468C106.131 24.036 105.987 23.688 105.699 23.424C105.435 23.16 105.051 23.028 104.547 23.028C103.875 23.028 103.239 23.256 102.639 23.712C102.039 24.144 101.475 24.72 100.947 25.44C100.443 26.16 99.9754 26.94 99.5434 27.78C99.1354 28.62 98.7634 29.436 98.4274 30.228C98.1154 31.02 97.8514 31.704 97.6354 32.28C97.3714 33 97.1194 33.48 96.8794 33.72C96.6394 33.984 96.2914 34.116 95.8354 34.116C95.6674 34.116 95.4634 34.068 95.2234 33.972C95.0074 33.876 94.8154 33.636 94.6474 33.252C94.5034 32.868 94.4314 32.256 94.4314 31.416C94.4314 29.952 94.6354 28.344 95.0434 26.592C95.4514 24.84 95.9914 23.064 96.6634 21.264C97.3594 19.44 98.1154 17.7 98.9314 16.044C99.7474 14.388 100.575 12.9 101.415 11.58C102.255 10.26 103.035 9.216 103.755 8.448C104.499 7.68 105.111 7.296 105.591 7.296C105.999 7.296 106.335 7.548 106.599 8.052C106.887 8.532 107.031 9.156 107.031 9.924C107.031 10.74 106.851 11.652 106.491 12.66C106.131 13.644 105.615 14.652 104.943 15.684C104.295 16.692 103.515 17.652 102.603 18.564C101.691 19.476 100.683 20.256 99.5794 20.904C98.9074 22.464 98.3914 24.012 98.0314 25.548C97.6714 27.06 97.4434 28.404 97.3474 29.58C97.7794 28.596 98.2714 27.588 98.8234 26.556C99.3754 25.524 99.9874 24.564 100.659 23.676C101.331 22.764 102.051 22.032 102.819 21.48C103.611 20.928 104.451 20.652 105.339 20.652C106.299 20.652 107.139 20.988 107.859 21.66C108.579 22.332 108.939 23.172 108.939 24.18C108.939 24.9 108.747 25.524 108.363 26.052C107.979 26.58 107.499 27.024 106.923 27.384C106.371 27.72 105.807 27.972 105.231 28.14C104.655 28.308 104.163 28.404 103.755 28.428C103.851 28.86 103.995 29.412 104.187 30.084C104.403 30.756 104.703 31.356 105.087 31.884C105.471 32.388 105.975 32.64 106.599 32.64C107.199 32.64 107.811 32.364 108.435 31.812C109.083 31.26 109.707 30.528 110.307 29.616C110.931 28.704 111.483 27.696 111.963 26.592L112.467 27.204C112.059 28.404 111.495 29.556 110.775 30.66C110.079 31.764 109.299 32.652 108.435 33.324C107.571 34.02 106.683 34.368 105.771 34.368ZM100.623 18.456C101.271 17.88 101.955 17.172 102.675 16.332C103.395 15.468 104.007 14.556 104.511 13.596C105.039 12.612 105.315 11.676 105.339 10.788V10.68C105.099 10.776 104.715 11.196 104.187 11.94C103.683 12.66 103.119 13.584 102.495 14.712C101.871 15.84 101.247 17.088 100.623 18.456ZM113.004 34.692C112.212 34.692 111.528 34.428 110.952 33.9C110.352 33.372 110.052 32.58 110.052 31.524C110.052 30.684 110.244 29.772 110.628 28.788C111.012 27.804 111.54 26.832 112.212 25.872C112.884 24.912 113.652 24.048 114.516 23.28C115.38 22.488 116.304 21.852 117.288 21.372C118.272 20.892 119.256 20.652 120.24 20.652C121.272 20.652 122.148 20.916 122.868 21.444C123.588 21.972 123.948 22.668 123.948 23.532C123.948 24.18 123.72 24.648 123.264 24.936C122.808 25.224 122.268 25.308 121.644 25.188C121.692 24.972 121.728 24.756 121.752 24.54C121.8 24.324 121.824 24.096 121.824 23.856C121.824 23.376 121.728 22.944 121.536 22.56C121.344 22.176 120.936 21.984 120.312 21.984C119.64 21.984 118.956 22.212 118.26 22.668C117.564 23.124 116.892 23.724 116.244 24.468C115.62 25.188 115.056 25.992 114.552 26.88C114.048 27.744 113.652 28.596 113.364 29.436C113.076 30.276 112.932 31.032 112.932 31.704C112.932 32.472 113.208 32.856 113.76 32.856C114.312 32.856 114.924 32.592 115.596 32.064C116.268 31.512 116.94 30.828 117.612 30.012C118.308 29.196 118.968 28.368 119.592 27.528C120.216 26.664 120.756 25.932 121.212 25.332C121.284 25.212 121.38 25.152 121.5 25.152C121.596 25.176 121.776 25.236 122.04 25.332C122.328 25.404 122.592 25.524 122.832 25.692C123.072 25.86 123.192 26.076 123.192 26.34C123.192 26.652 123.024 27.084 122.688 27.636C122.352 28.164 122.004 28.74 121.644 29.364C121.308 29.988 121.14 30.564 121.14 31.092C121.14 31.404 121.224 31.704 121.392 31.992C121.56 32.256 121.836 32.388 122.22 32.388C122.796 32.388 123.6 31.968 124.632 31.128C125.688 30.264 126.756 28.812 127.836 26.772L128.52 27.456C127.632 29.424 126.528 31.02 125.208 32.244C123.888 33.468 122.556 34.08 121.212 34.08C120.228 34.08 119.496 33.768 119.016 33.144C118.536 32.52 118.272 31.848 118.224 31.128V30.948C117.264 32.1 116.376 33.012 115.56 33.684C114.768 34.356 113.916 34.692 113.004 34.692Z" fill="#DC6B31"/>
<mask id="path-2-inside-1" fill="white">
<path fill-rule="evenodd" clip-rule="evenodd" d="M55 40H0.5C0.223858 40 0 40.2239 0 40.5C0 40.7761 0.223857 41 0.5 41H55V40ZM71 41H126.5C126.776 41 127 40.7761 127 40.5C127 40.2239 126.776 40 126.5 40H71V41Z"/>
</mask>
<path fill-rule="evenodd" clip-rule="evenodd" d="M55 40H0.5C0.223858 40 0 40.2239 0 40.5C0 40.7761 0.223857 41 0.5 41H55V40ZM71 41H126.5C126.776 41 127 40.7761 127 40.5C127 40.2239 126.776 40 126.5 40H71V41Z" fill="#C4C4C4"/>
<path d="M55 40H56V39H55V40ZM55 41V42H56V41H55ZM71 41H70V42H71V41ZM71 40V39H70V40H71ZM0.5 41H55V39H0.5V41ZM1 40.5C1 40.7761 0.776142 41 0.5 41V39C-0.328427 39 -1 39.6716 -1 40.5H1ZM0.5 40C0.776143 40 1 40.2239 1 40.5H-1C-1 41.3284 -0.328428 42 0.5 42V40ZM55 40H0.5V42H55V40ZM56 41V40H54V41H56ZM126.5 40H71V42H126.5V40ZM126 40.5C126 40.2239 126.224 40 126.5 40V42C127.328 42 128 41.3284 128 40.5H126ZM126.5 41C126.224 41 126 40.7761 126 40.5H128C128 39.6716 127.328 39 126.5 39V41ZM71 41H126.5V39H71V41ZM70 40V41H72V40H70Z" fill="#C24624" mask="url(#path-2-inside-1)"/>
<circle cx="63" cy="40" r="3" fill="#352D9B"/>
</svg>
